<?xml version="1.0" standalone="no"?><!DOCTYPE svg PUBLIC "-//W3C//DTD SVG 1.1//EN" "http://www.w3.org/Graphics/SVG/1.1/DTD/svg11.dtd"><svg class="icon" width="200px" height="172.97px" viewBox="0 0 1184 1024" version="1.1" xmlns="http://www.w3.org/2000/svg"><path d="M283.407059 614.339765c14.215529 0 25.780706-11.504941 25.780706-25.640157 0-155.226353 127.016157-281.6 283.286588-281.6s283.286588 126.253176 283.286588 281.6c0 14.135216 11.565176 25.640157 25.800784 25.640157 14.215529 0 25.780706-11.504941 25.780706-25.640157 0-183.516863-150.14651-332.759843-334.747607-332.759843-184.621176 0-335.008627 149.363451-335.008628 332.860235 0 14.155294 11.565176 25.539765 25.800784 25.539765z m308.946823-409.439373c14.235608 0 25.800784-11.504941 25.800785-25.640157V25.640157C618.154667 11.504941 606.58949 0 592.353882 0s-25.800784 11.504941-25.800784 25.640157v153.6c0 14.155294 11.565176 25.660235 25.800784 25.660235z m291.378196 119.908392c6.605804 0 13.191529-2.529882 18.170981-7.469176l109.206588-108.544a25.499608 25.499608 0 0 0 0-36.22149 25.881098 25.881098 0 0 0-36.442353 0l-109.206588 108.544a25.499608 25.499608 0 0 0 0 36.22149c5.099922 4.939294 11.685647 7.469176 18.271372 7.469176z m275.07451 238.351059h-154.403137c-14.255686 0-25.800784 11.504941-25.800784 25.640157 0 14.155294 11.565176 25.640157 25.780706 25.640157h154.543686c14.235608 0 25.800784-11.484863 25.800784-25.640157 0-14.135216-11.685647-25.640157-25.901176-25.640157z m-952.681412 25.640157c0-14.135216-11.565176-25.640157-25.800784-25.640157H25.901176c-14.235608 0-25.800784 11.504941-25.800784 25.640157 0 14.155294 11.565176 25.539765 25.800784 25.539765h154.543687c14.115137 0 25.680314-11.384471 25.680313-25.539765z m76.699608-271.460392a25.740549 25.740549 0 0 0 36.301804 0 25.499608 25.499608 0 0 0 0-36.22149l-109.18651-108.544a25.881098 25.881098 0 0 0-36.442353 0 25.499608 25.499608 0 0 0 0 36.22149l109.306981 108.544z m798.840471 450.600157H103.04251c-14.215529 0-25.780706 11.504941-25.780706 25.640157s11.565176 25.640157 25.780706 25.640156h978.622745c14.215529 0 25.800784-11.504941 25.800784-25.640156s-11.585255-25.640157-25.800784-25.640157z m-180.344471 204.779921H283.407059c-14.235608 0-25.800784 11.504941-25.800784 25.640157S269.151373 1024 283.407059 1024h618.054274c14.235608 0 25.800784-11.504941 25.800785-25.640157s-11.685647-25.640157-25.901177-25.640157z" fill="#F8C34A" /></svg>