<?xml version="1.0" standalone="no"?><!DOCTYPE svg PUBLIC "-//W3C//DTD SVG 1.1//EN" "http://www.w3.org/Graphics/SVG/1.1/DTD/svg11.dtd"><svg class="icon" width="200px" height="200.00px" viewBox="0 0 1024 1024" version="1.1" xmlns="http://www.w3.org/2000/svg"><path d="M335.65696 176.42496a30.72 30.72 0 0 1 39.66976 15.54944l0.47104 1.0752 29.3888 70.95808a30.72 30.72 0 0 1-56.28928 24.59136l-0.47104-1.08032-29.3888-70.95296a30.72 30.72 0 0 1 16.61952-40.1408zM86.272 425.80992a30.72 30.72 0 0 1 39.04512-17.05472l1.09568 0.43008 70.95296 29.3888a30.72 30.72 0 0 1-22.41536 57.1904l-1.09568-0.42496-70.95296-29.3888a30.72 30.72 0 0 1-16.62464-40.1408zM897.5872 409.18528a30.72 30.72 0 0 1 24.59136 56.28928l-1.08032 0.47104-70.95296 29.3888a30.72 30.72 0 0 1-24.59136-56.28928l1.0752-0.47104 70.95808-29.3888zM648.20224 193.0496a30.72 30.72 0 0 1 57.1904 22.41536l-0.42496 1.1008-29.3888 70.95296a30.72 30.72 0 0 1-57.19552-22.41536l0.43008-1.09568 29.3888-70.95808zM942.08 632.86784a30.72 30.72 0 0 1 1.152 61.41952l-1.152 0.02048H81.92a30.72 30.72 0 0 1-1.152-61.4144l1.152-0.0256h860.16zM819.2 786.46784a30.72 30.72 0 0 1 1.152 61.41952l-1.152 0.02048H204.8a30.72 30.72 0 0 1-1.152-61.4144l1.152-0.0256h614.4z" fill="#F8C34A" /><path d="M361.71776 388.82816c90.14272-63.4368 210.41664-63.4368 300.56448 0 90.14272 63.44192 130.7392 176.65536 101.4528 282.92608a30.72 30.72 0 1 1-59.2384-16.32768 199.68 199.68 0 1 0-384.9984 0 30.72 30.72 0 0 1-59.23328 16.32768c-29.2864-106.2656 11.31008-219.48416 101.4528-282.92608z" fill="#F8C34A" /></svg>