<?xml version="1.0" standalone="no"?><!DOCTYPE svg PUBLIC "-//W3C//DTD SVG 1.1//EN" "http://www.w3.org/Graphics/SVG/1.1/DTD/svg11.dtd"><svg class="icon" width="200px" height="200.00px" viewBox="0 0 1024 1024" version="1.1" xmlns="http://www.w3.org/2000/svg"><path d="M51.2 640m10.24 0l133.12 0q10.24 0 10.24 10.24l0 363.52q0 10.24-10.24 10.24l-133.12 0q-10.24 0-10.24-10.24l0-363.52q0-10.24 10.24-10.24ZM256 486.4m10.24 0l133.12 0q10.24 0 10.24 10.24l0 517.12q0 10.24-10.24 10.24l-133.12 0q-10.24 0-10.24-10.24l0-517.12q0-10.24 10.24-10.24ZM460.8 332.8m10.24 0l133.12 0q10.24 0 10.24 10.24l0 670.72q0 10.24-10.24 10.24l-133.12 0q-10.24 0-10.24-10.24l0-670.72q0-10.24 10.24-10.24Z"  fill="#5C8DFF"/></svg>