<?xml version="1.0" standalone="no"?><!DOCTYPE svg PUBLIC "-//W3C//DTD SVG 1.1//EN" "http://www.w3.org/Graphics/SVG/1.1/DTD/svg11.dtd"><svg class="icon" width="200px" height="200.00px" viewBox="0 0 1024 1024" version="1.1" xmlns="http://www.w3.org/2000/svg"><path d="M499.797333 536.618667a17.408 17.408 0 0 1 24.405334 0l273.536 269.056a17.408 17.408 0 0 0 24.448 0l25.941333-25.514667a17.493333 17.493333 0 0 0 0-24.917333l-323.925333-318.549334a17.408 17.408 0 0 0-24.405334 0L175.872 755.2a17.493333 17.493333 0 0 0 0 24.917333l25.941333 25.514667a17.408 17.408 0 0 0 24.448 0l273.493334-269.056z" fill="#DDE8FF" /><path d="M499.797333 318.293333a17.408 17.408 0 0 1 24.405334 0l273.536 269.013334a17.408 17.408 0 0 0 24.448 0l25.941333-25.472a17.493333 17.493333 0 0 0 0-24.917334l-323.925333-318.592a17.408 17.408 0 0 0-24.405334 0l-323.925333 318.592a17.493333 17.493333 0 0 0 0 24.917334l25.941333 25.472a17.408 17.408 0 0 0 24.448 0l273.493334-269.013334z" fill="#DDE8FF" /></svg>