<?xml version="1.0" standalone="no"?><!DOCTYPE svg PUBLIC "-//W3C//DTD SVG 1.1//EN" "http://www.w3.org/Graphics/SVG/1.1/DTD/svg11.dtd"><svg class="icon" width="200px" height="200.00px" viewBox="0 0 1024 1024" version="1.1" xmlns="http://www.w3.org/2000/svg"><path d="M628.992 46.208a32 32 0 0 1 22.656 9.344l316.8 316.8a32 32 0 0 1 0 45.248c-30.72 30.72-68.608 37.632-96.192 37.632-11.328 0-21.44-1.152-29.44-2.496l-200.576 200.576a379.328 379.328 0 0 1 10.24 64.832c2.944 44.928-2.048 107.968-46.08 152a32 32 0 0 1-45.248 0l-181.056-180.992-203.648 203.648c-12.48 12.48-78.016 57.728-90.496 45.248-12.48-12.48 32.768-78.08 45.248-90.496l203.648-203.648-180.992-181.056a32 32 0 0 1 0-45.248c44.032-44.032 107.072-49.088 152-46.08a379.008 379.008 0 0 1 64.832 10.24l200.576-200.512a177.408 177.408 0 0 1-2.56-29.504c0-27.52 6.912-65.408 37.696-96.192a32 32 0 0 1 22.592-9.344z m7.808 135.168v-0.128 0.128z m0-0.128v0.128a32 32 0 0 1-7.808 32.64L402.752 440.192a32 32 0 0 1-32.704 7.68H369.92l-0.896-0.256a288.448 288.448 0 0 0-18.432-4.864 315.008 315.008 0 0 0-48.96-7.424c-27.008-1.792-53.504 0.512-75.2 9.6l352.64 352.576c9.024-21.76 11.328-48.192 9.536-75.2a315.136 315.136 0 0 0-12.288-67.456l-0.256-0.832v-0.064a32 32 0 0 1 7.68-32.768l226.304-226.24a32 32 0 0 1 34.048-7.36l6.144 1.408c5.568 1.088 13.312 2.176 22.016 2.176 7.296 0 14.72-0.704 21.952-2.56L635.328 129.792c-1.856 7.232-2.56 14.72-2.56 21.952a113.856 113.856 0 0 0 3.968 29.44z" fill="#BFD0EA" /></svg>